<?xml version="1.0" encoding="UTF-8"?> <svg xmlns="http://www.w3.org/2000/svg" id="Capa_1" height="512" viewBox="0 0 512 512" width="512"><g><path d="m421 467c0-8.401 6.599-15 15-15l-38.355-15h-111.645-180c-16.569 0-30 13.431-30 30s13.431 30 30 30h180 116.854l33.146-15c-8.401 0-15-6.599-15-15z" fill="#e1e6f0"></path><path d="m436 482c-8.401 0-15-6.599-15-15s6.599-15 15-15l-38.355-15h-111.645v60h116.854z" fill="#cfd7e6"></path><path d="m436 482h-150-180c-8.284 0-15-6.716-15-15s6.716-15 15-15l-15-30c-16.5 0-30 43.5-30 60s13.5 30 30 30h195 165v-30z" fill="#e64444"></path><path d="m451 482h-15-150v30h165z" fill="#cc2929"></path><path d="m286 0h-165l-30 61.005v345.79l30 45.205h165 165v-452z" fill="#f66"></path><path d="m286 0h165v452h-165z" fill="#e64444"></path><g><path d="m342.558 181-26.558-15h-30-30l-26.558 15c31.494 0 10.336 70.693-2.227 98.892l27.393 12.217h31.392 31.392l27.393-12.217c-12.577-28.226-33.712-98.892-2.227-98.892z" fill="#f3f5f9"></path><path d="m344.784 279.892c-12.576-28.226-33.711-98.892-2.226-98.892l-26.558-15h-30v126.108h31.392z" fill="#e1e6f0"></path><circle cx="286" cy="106" fill="#f3f5f9" r="45"></circle><path d="m331 106c0-24.814-20.186-45-45-45v90c24.814 0 45-20.186 45-45z" fill="#e1e6f0"></path><path d="m346 271h-60-60c-16.569 0-30 13.431-30 30 0 16.567 13.431 30 30 30l20.092 15h39.908 44.29l15.71-15c16.569 0 30-13.433 30-30 0-16.569-13.431-30-30-30z" fill="#e1e6f0"></path><path d="m376 301c0-16.569-13.431-30-30-30h-60v75h44.29l15.71-15c16.569 0 30-13.433 30-30z" fill="#cfd7e6"></path><path d="m361 331h-75-75c-16.569 0-30 13.431-30 30v30h105 105v-30c0-16.569-13.431-30-30-30z" fill="#f3f5f9"></path><path d="m391 361c0-16.569-13.431-30-30-30h-75v60h105z" fill="#e1e6f0"></path><path d="m286 151h-60v30h60 60v-30z" fill="#e1e6f0"></path><path d="m286 151h60v30h-60z" fill="#cfd7e6"></path></g><path d="m106 0c-24.814 0-45 20.186-45 45v437c0-16.5 13.5-30 30-30h30v-452z" fill="#353d4d"></path></g></svg> 